<svg xmlns="http://www.w3.org/2000/svg" viewBox="0 0 512 512" role="img" aria-label="Signet PDF editor">
  <defs>
    <linearGradient id="bg" x1="56" y1="38" x2="456" y2="474" gradientUnits="userSpaceOnUse">
      <stop stop-color="#7858F4"/>
      <stop offset="1" stop-color="#4F86FF"/>
    </linearGradient>
  </defs>
  <rect width="512" height="512" rx="116" fill="url(#bg)"/>
  <path d="M104 142h222l60 60v170c0 22-18 40-40 40H104c-22 0-40-18-40-40V182c0-22 18-40 40-40Z" fill="#fff"/>
  <path d="M326 142v60h60" fill="#E9E6FF"/>
  <path d="M104 142h222l60 60v170c0 22-18 40-40 40H104c-22 0-40-18-40-40V182c0-22 18-40 40-40Z" fill="none" stroke="#352777" stroke-width="12" stroke-linejoin="round"/>
  <path d="M114 264h29M105 287h28M115 310h20" stroke="#9A91C8" stroke-width="10" stroke-linecap="round"/>
  <text x="72" y="349" font-family="Arial,sans-serif" font-weight="900" font-size="126" letter-spacing="-9" fill="#292244">PD</text>
  <g transform="rotate(-8 286 306)">
    <text x="246" y="359" font-family="Arial,sans-serif" font-weight="900" font-size="137" fill="#6A4CF0">F</text>
  </g>
  <g fill="#fff" stroke="#292244" stroke-width="13" stroke-linecap="round" stroke-linejoin="round">
    <path d="M324 329v-55a14 14 0 0 1 28 0v34-52a14 14 0 0 1 28 0v51-36a14 14 0 0 1 28 0v46-24a14 14 0 0 1 28 0v61c0 48-30 78-76 78h-10c-38 0-63-17-81-49l-20-36a16 16 0 0 1 26-18l25 29c7 8 15 8 24 1Z"/>
    <path d="M319 314c19 9 39 8 57-2" fill="none"/>
  </g>
</svg>
